<?xml version="1.0" encoding="UTF-8" standalone="no"?><!DOCTYPE svg PUBLIC "-//W3C//DTD SVG 1.1//EN" "http://www.w3.org/Graphics/SVG/1.1/DTD/svg11.dtd"><svg width="100%" height="100%" viewBox="0 0 199 54" version="1.1" xmlns="http://www.w3.org/2000/svg" xmlns:xlink="http://www.w3.org/1999/xlink" xml:space="preserve" xmlns:serif="http://www.serif.com/" style="fill-rule:evenodd;clip-rule:evenodd;stroke-linejoin:round;stroke-miterlimit:1.41421;"><clipPath id="_clip1"><rect x="0" y="0" width="198.48" height="53.04"/></clipPath><g clip-path="url(#_clip1)"><g id="layer101"><path d="M10.848,52.656c-0.96,-0.168 -2.4,-0.6 -3.24,-0.984c-3.408,-1.488 -7.416,-4.32 -7.56,-5.304c-0.072,-0.408 0.6,-1.248 2.736,-3.504l2.832,-2.952l1.632,1.368c4.464,3.744 10.32,4.728 13.56,2.256c1.992,-1.512 2.424,-4.752 0.888,-6.768c-0.96,-1.248 -2.784,-2.304 -6.936,-4.032c-6.408,-2.64 -8.544,-3.936 -10.584,-6.36c-1.128,-1.368 -1.704,-2.52 -2.136,-4.344c-1.224,-5.232 0.96,-10.344 5.736,-13.416c5.208,-3.384 13.296,-3.456 19.584,-0.192c1.008,0.504 2.16,1.224 2.592,1.608l0.768,0.648l-2.28,3.216c-1.248,1.776 -2.376,3.336 -2.496,3.456c-0.144,0.144 -0.528,0 -1.032,-0.384c-2.28,-1.752 -5.736,-2.688 -8.448,-2.304c-3.336,0.456 -5.184,1.992 -5.184,4.296c0,2.424 1.104,3.264 8.136,6.144c2.016,0.84 4.488,1.968 5.496,2.544c2.304,1.32 5.016,3.96 5.88,5.712c2.304,4.776 1.68,10.392 -1.56,14.328c-2.184,2.616 -4.968,4.368 -8.016,5.016c-2.064,0.432 -7.896,0.408 -10.368,-0.048Z" style="fill-rule:nonzero;"/><path d="M98.88,52.656c-5.256,-0.936 -10.224,-5.16 -12.336,-10.464c-1.44,-3.648 -1.464,-3.936 -1.464,-20.352l0,-15l9.36,0l0.12,15.12c0.12,13.128 0.168,15.264 0.528,16.248c1.536,4.512 5.304,6.888 10.368,6.6c4.584,-0.24 7.608,-2.328 9.048,-6.216c0.552,-1.512 0.552,-1.512 0.696,-16.632l0.12,-15.12l9.36,0l0,15c-0.024,14.616 -0.024,15.048 -0.552,17.28c-0.312,1.296 -1.008,3.216 -1.632,4.536c-2.256,4.632 -6.912,8.16 -11.856,9.024c-2.568,0.432 -9.264,0.432 -11.76,-0.024Z" style="fill-rule:nonzero;"/><path d="M153.168,52.68c-1.2,-0.528 -3.024,-2.616 -3.984,-4.56c-3.912,-7.872 0.048,-16.272 7.2,-15.36l1.296,0.144l-0.36,-0.984c-1.224,-3.432 -4.32,-4.584 -8.88,-3.24c-4.2,1.224 -9.432,3.912 -12.984,6.648l-1.464,1.128l-0.48,-0.528c-0.24,-0.288 -0.768,-0.96 -1.152,-1.464l-0.672,-0.936l0.552,-0.456c0.312,-0.24 1.488,-1.032 2.64,-1.752c6.768,-4.176 14.736,-6.96 23.016,-8.04c2.184,-0.288 9.36,-0.384 10.344,-0.12c0.528,0.12 0.696,0.024 1.128,-0.768c3.096,-5.472 12.144,-5.904 19.632,-0.936c3.336,2.232 7.224,6.264 8.952,9.288c0.96,1.704 0.864,1.776 -2.16,2.352c-5.712,1.08 -8.16,1.32 -12.912,1.344c-5.04,0 -6.168,-0.192 -8.736,-1.464c-2.256,-1.128 -4.344,-3.456 -5.064,-5.616c-0.36,-1.056 -0.48,-1.2 -1.272,-1.368c-1.176,-0.24 -7.416,-0.24 -9.504,0.024c-1.368,0.144 -1.584,0.24 -1.2,0.432c1.632,0.864 3.144,3.096 3.696,5.424l0.288,1.248l1.248,-0.168c3.864,-0.576 6.144,0.696 7.896,4.44c1.344,2.88 1.104,7.632 -0.552,11.016c-0.888,1.824 -2.664,3.816 -3.792,4.272c-1.128,0.48 -3.912,0.456 -5.352,-0.048c-1.08,-0.384 -1.2,-0.384 -2.016,0c-1.08,0.504 -4.2,0.552 -5.352,0.048Z" style="fill-rule:nonzero;"/><path d="M38.928,29.712l0.072,-22.872l8.76,-0.072c11.424,-0.096 14.04,0.264 18.648,2.472c5.76,2.808 9.648,7.656 11.352,14.208c1.464,5.64 0.864,11.688 -1.656,16.992c-2.424,5.064 -6.456,8.784 -11.664,10.656c-3.744,1.344 -4.968,1.464 -15.744,1.464l-9.816,0l0.048,-22.848Zm19.968,14.088c3.072,-0.864 5.64,-2.544 7.272,-4.848c3.48,-4.872 3.84,-11.712 0.912,-16.992c-1.68,-3.048 -4.008,-4.92 -7.392,-6.024c-1.776,-0.576 -2.448,-0.648 -6.576,-0.768l-4.632,-0.12l0,29.424l4.512,-0.144c3.048,-0.096 4.944,-0.264 5.904,-0.528Z" style="fill-rule:nonzero;"/><path d="M153.408,20.688c-0.312,-0.816 0.456,-3.792 1.488,-5.928c2.832,-5.76 9.192,-10.56 17.808,-13.464c1.824,-0.6 5.064,-1.296 6.096,-1.296c0.552,0 0.504,0.072 -0.528,0.96c-1.536,1.344 -2.928,3.24 -5.52,7.632c-1.92,3.24 -2.568,4.104 -4.632,6.192c-2.088,2.088 -2.712,2.544 -4.68,3.528c-2.448,1.2 -4.944,1.968 -7.992,2.448c-1.656,0.264 -1.896,0.264 -2.04,-0.072Z" style="fill-rule:nonzero;"/></g></g></svg>