<?xml version="1.0" encoding="UTF-8" standalone="no"?><!DOCTYPE svg PUBLIC "-//W3C//DTD SVG 1.1//EN" "http://www.w3.org/Graphics/SVG/1.1/DTD/svg11.dtd"><svg width="100%" height="100%" viewBox="0 0 208 59" version="1.1" xmlns="http://www.w3.org/2000/svg" xmlns:xlink="http://www.w3.org/1999/xlink" xml:space="preserve" xmlns:serif="http://www.serif.com/" style="fill-rule:evenodd;clip-rule:evenodd;stroke-linejoin:round;stroke-miterlimit:1.41421;"><g id="layer101"><path d="M35.305,30.467c0,-8.603 0.18,-12.187 0.269,-7.796c0.179,4.301 0.179,11.29 0,15.681c-0.089,4.301 -0.269,0.717 -0.269,-7.885Z" style="fill:#a6b9c5;fill-rule:nonzero;"/><path d="M139.34,41.13c0,-1.882 0.269,-3.495 0.717,-3.495c0.358,0 0.627,1.344 0.627,3.047c0,1.702 -0.269,3.315 -0.627,3.495c-0.448,0.268 -0.717,-1.076 -0.717,-3.047Z" style="fill:#a6b9c5;fill-rule:nonzero;"/><path d="M155.738,44.177c-0.179,-0.448 -0.089,-2.33 0.269,-4.302l0.538,-3.584l0.179,4.301c0.089,3.943 -0.269,5.108 -0.986,3.585Z" style="fill:#a6b9c5;fill-rule:nonzero;"/><path d="M48.657,39.696c1.344,-0.179 3.315,-0.179 4.48,0c1.076,0.179 0,0.359 -2.509,0.359c-2.419,0 -3.405,-0.18 -1.971,-0.359Z" style="fill:#a6b9c5;fill-rule:nonzero;"/><path d="M120.343,37.008c0.807,-0.179 2.061,-0.179 2.688,0c0.538,0.269 -0.089,0.448 -1.613,0.448c-1.433,0 -1.971,-0.179 -1.075,-0.448Z" style="fill:#a6b9c5;fill-rule:nonzero;"/><path d="M13.71,36.112c0.806,-0.179 2.24,-0.179 3.136,0c0.807,0.269 0.09,0.448 -1.613,0.448c-1.702,0 -2.419,-0.179 -1.523,-0.448Z" style="fill:#a6b9c5;fill-rule:nonzero;"/><path d="M42.384,30.467c0,-3.674 0.18,-5.198 0.359,-3.316c0.179,1.792 0.179,4.839 0,6.721c-0.179,1.792 -0.359,0.269 -0.359,-3.405Z" style="fill:#a6b9c5;fill-rule:nonzero;"/><path d="M181.276,30.915c0,-2.42 0.18,-3.405 0.359,-1.972c0.179,1.344 0.179,3.316 0,4.481c-0.179,1.075 -0.359,0 -0.359,-2.509Z" style="fill:#a6b9c5;fill-rule:nonzero;"/><path d="M196.868,33.424c-0.806,-0.807 -0.806,-5.466 0.09,-5.914c0.358,-0.269 0.627,1.075 0.627,3.046c0,1.882 0,3.495 -0.09,3.495c0,0 -0.358,-0.269 -0.627,-0.627Z" style="fill:#a6b9c5;fill-rule:nonzero;"/><path d="M126.526,30.467c0,-1.703 0.179,-2.42 0.448,-1.524c0.179,0.807 0.179,2.24 0,3.137c-0.269,0.806 -0.448,0.089 -0.448,-1.613Z" style="fill:#a6b9c5;fill-rule:nonzero;"/><path d="M122.763,28.764c0,-0.538 0.448,-1.165 0.896,-1.434c0.537,-0.268 0.896,0.09 0.896,0.807c0,0.806 -0.359,1.434 -0.896,1.434c-0.448,0 -0.896,-0.359 -0.896,-0.807Z" style="fill:#a6b9c5;fill-rule:nonzero;"/><path d="M49.105,24.463c1.075,-0.179 2.688,-0.179 3.584,0c0.807,0.269 -0.089,0.448 -2.061,0.358c-1.971,0 -2.688,-0.179 -1.523,-0.358Z" style="fill:#a6b9c5;fill-rule:nonzero;"/><path d="M154.394,23.567c0.806,-0.179 2.061,-0.179 2.688,0c0.538,0.269 -0.089,0.448 -1.613,0.448c-1.433,0 -1.971,-0.179 -1.075,-0.448Z" style="fill:#a6b9c5;fill-rule:nonzero;"/><path d="M174.287,19.803c0,-1.971 0.269,-3.315 0.717,-3.046c0.358,0.179 0.627,1.792 0.627,3.494c0,1.703 -0.269,3.047 -0.627,3.047c-0.448,0 -0.717,-1.613 -0.717,-3.495Z" style="fill:#a6b9c5;fill-rule:nonzero;"/><path d="M138.444,21.506c-1.434,-0.627 -1.523,-0.807 -0.269,-0.807c0.807,-0.089 1.792,0.359 2.061,0.807c0.627,0.986 0.627,0.986 -1.792,0Z" style="fill:#a6b9c5;fill-rule:nonzero;"/><path d="M13.262,20.879c1.075,-0.18 2.867,-0.18 4.032,0c1.076,0.179 0.179,0.358 -2.061,0.358c-2.24,0 -3.136,-0.179 -1.971,-0.358Z" style="fill:#a6b9c5;fill-rule:nonzero;"/><path d="M49.105,20.879c1.075,-0.18 2.688,-0.18 3.584,0c0.807,0.268 -0.089,0.448 -2.061,0.358c-1.971,0 -2.688,-0.179 -1.523,-0.358Z" style="fill:#a6b9c5;fill-rule:nonzero;"/><path d="M153.946,19.983c0.538,-0.18 1.613,-0.18 2.24,0c0.538,0.268 0.09,0.448 -1.165,0.448c-1.254,0 -1.702,-0.18 -1.075,-0.448Z" style="fill:#a6b9c5;fill-rule:nonzero;"/></g><g id="layer102"><path d="M30.825,30.467c0,-8.603 0.179,-12.187 0.269,-7.796c0.179,4.301 0.179,11.29 0,15.681c-0.09,4.301 -0.269,0.717 -0.269,-7.885Z" style="fill:#b9c8d1;fill-rule:nonzero;"/><path d="M101.615,30.467c0,-8.603 0.179,-12.187 0.269,-7.796c0.179,4.301 0.179,11.29 0,15.681c-0.09,4.301 -0.269,0.717 -0.269,-7.885Z" style="fill:#b9c8d1;fill-rule:nonzero;"/><path d="M149.914,42.116c0,-2.241 0.179,-3.137 0.358,-1.972c0.179,1.076 0.179,2.868 0,4.033c-0.179,1.075 -0.358,0.179 -0.358,-2.061Z" style="fill:#b9c8d1;fill-rule:nonzero;"/><path d="M136.204,40.592c-0.269,-2.598 -0.09,-4.301 0.268,-3.942c0.449,0.448 0.628,2.509 0.449,4.659l-0.269,3.943l-0.448,-4.66Z" style="fill:#b9c8d1;fill-rule:nonzero;"/><path d="M112.906,40.861c0,-1.702 0.268,-3.315 0.717,-3.584c0.358,-0.179 0.537,1.165 0.358,3.136c-0.448,4.301 -1.075,4.57 -1.075,0.448Z" style="fill:#b9c8d1;fill-rule:nonzero;"/><path d="M146.061,42.653c0,-1.165 -0.538,-1.523 -1.793,-1.165c-0.985,0.269 -1.792,0.09 -1.792,-0.358c0,-1.344 3.585,-0.896 4.212,0.538c0.269,0.806 0.269,1.702 -0.09,1.971c-0.269,0.358 -0.537,-0.179 -0.537,-0.986Z" style="fill:#b9c8d1;fill-rule:nonzero;"/><path d="M155.021,39.965c0,-1.703 0.269,-3.315 0.717,-3.584c0.359,-0.179 0.538,1.165 0.359,3.136c-0.448,4.301 -1.076,4.57 -1.076,0.448Z" style="fill:#b9c8d1;fill-rule:nonzero;"/><path d="M7.527,34.947c0.09,-0.806 1.075,-1.434 2.33,-1.523c1.882,-0.09 1.882,-0.09 0.269,0.268c-1.076,0.269 -2.151,0.986 -2.33,1.524c-0.179,0.627 -0.269,0.448 -0.269,-0.269Z" style="fill:#b9c8d1;fill-rule:nonzero;"/><path d="M58.514,30.467c0,-3.674 0.179,-5.198 0.358,-3.316c0.179,1.792 0.179,4.839 0,6.721c-0.179,1.792 -0.358,0.269 -0.358,-3.405Z" style="fill:#b9c8d1;fill-rule:nonzero;"/><path d="M108.694,36.112c0.807,-0.179 2.24,-0.179 3.136,0c0.807,0.269 0.09,0.448 -1.613,0.448c-1.702,0 -2.419,-0.179 -1.523,-0.448Z" style="fill:#b9c8d1;fill-rule:nonzero;"/><path d="M118.999,36.112c1.075,-0.179 2.688,-0.179 3.584,0c0.807,0.269 -0.089,0.448 -2.061,0.358c-1.971,0 -2.688,-0.179 -1.523,-0.358Z" style="fill:#b9c8d1;fill-rule:nonzero;"/><path d="M127.96,36.112c0.537,-0.179 1.613,-0.179 2.24,0c0.538,0.269 0.09,0.448 -1.165,0.448c-1.254,0 -1.702,-0.179 -1.075,-0.448Z" style="fill:#b9c8d1;fill-rule:nonzero;"/><path d="M141.401,36.112c0.538,-0.179 1.613,-0.179 2.24,0c0.538,0.269 0.09,0.448 -1.165,0.448c-1.254,0 -1.702,-0.179 -1.075,-0.448Z" style="fill:#b9c8d1;fill-rule:nonzero;"/><path d="M89.876,30.019c0,-2.957 0.18,-4.033 0.359,-2.42c0.179,1.613 0.179,4.033 0,5.377c-0.179,1.344 -0.359,0 -0.359,-2.957Z" style="fill:#b9c8d1;fill-rule:nonzero;"/><path d="M147.046,31.721c-0.089,-2.688 0.269,-3.674 1.255,-3.674c0.806,0 0.985,0.359 0.537,0.986c-0.448,0.538 -0.985,2.24 -1.254,3.674c-0.269,2.24 -0.359,2.061 -0.538,-0.986Z" style="fill:#b9c8d1;fill-rule:nonzero;"/><path d="M153.498,30.467c0,-2.689 0.179,-3.854 0.358,-2.42c0.18,1.344 0.18,3.495 0,4.929c-0.179,1.344 -0.358,0.179 -0.358,-2.509Z" style="fill:#b9c8d1;fill-rule:nonzero;"/><path d="M187.549,30.467c0,-2.689 0.179,-3.854 0.358,-2.42c0.18,1.344 0.18,3.495 0,4.929c-0.179,1.344 -0.358,0.179 -0.358,-2.509Z" style="fill:#b9c8d1;fill-rule:nonzero;"/><path d="M133.695,32.259c0,-1.255 0.179,-1.703 0.448,-1.076c0.179,0.538 0.179,1.613 0,2.241c-0.269,0.537 -0.448,0.089 -0.448,-1.165Z" style="fill:#b9c8d1;fill-rule:nonzero;"/><path d="M190.237,30.467c0,-2.241 0.179,-3.137 0.359,-1.972c0.179,1.076 0.179,2.868 0,4.033c-0.18,1.075 -0.359,0.179 -0.359,-2.061Z" style="fill:#b9c8d1;fill-rule:nonzero;"/><path d="M106.812,30.467c0,-1.703 0.18,-2.42 0.448,-1.524c0.18,0.807 0.18,2.24 0,3.137c-0.268,0.806 -0.448,0.089 -0.448,-1.613Z" style="fill:#b9c8d1;fill-rule:nonzero;"/><path d="M113.085,30.467c0,-1.703 0.179,-2.42 0.448,-1.524c0.179,0.807 0.179,2.24 0,3.137c-0.269,0.806 -0.448,0.089 -0.448,-1.613Z" style="fill:#b9c8d1;fill-rule:nonzero;"/><path d="M138.533,27.958c-0.179,-0.359 0.359,-0.717 1.255,-0.717c0.896,0 1.434,0.358 1.254,0.717c-0.268,0.358 -0.806,0.716 -1.254,0.716c-0.448,0 -0.986,-0.358 -1.255,-0.716Z" style="fill:#b9c8d1;fill-rule:nonzero;"/><path d="M7.348,25.986c0,-1.254 0.179,-1.702 0.448,-1.075c0.179,0.538 0.179,1.613 0,2.24c-0.269,0.538 -0.448,0.09 -0.448,-1.165Z" style="fill:#b9c8d1;fill-rule:nonzero;"/><path d="M162.907,24.463c0.537,-0.179 1.613,-0.179 2.24,0c0.538,0.269 0.09,0.448 -1.165,0.448c-1.254,0 -1.703,-0.179 -1.075,-0.448Z" style="fill:#b9c8d1;fill-rule:nonzero;"/><path d="M176.348,24.463c0.538,-0.179 1.613,-0.179 2.24,0c0.538,0.269 0.09,0.448 -1.165,0.448c-1.254,0 -1.702,-0.179 -1.075,-0.448Z" style="fill:#b9c8d1;fill-rule:nonzero;"/><path d="M118.551,20.162c0,-2.42 0.179,-3.405 0.358,-1.972c0.18,1.344 0.18,3.316 0,4.481c-0.179,1.075 -0.358,0 -0.358,-2.509Z" style="fill:#b9c8d1;fill-rule:nonzero;"/><path d="M124.823,19.714c0,-2.689 0.18,-3.853 0.359,-2.42c0.179,1.344 0.179,3.495 0,4.929c-0.179,1.344 -0.359,0.179 -0.359,-2.509Z" style="fill:#b9c8d1;fill-rule:nonzero;"/><path d="M145.433,20.162c0,-2.42 0.179,-3.405 0.359,-1.972c0.179,1.344 0.179,3.316 0,4.481c-0.18,1.075 -0.359,0 -0.359,-2.509Z" style="fill:#b9c8d1;fill-rule:nonzero;"/><path d="M151.706,19.714c0,-2.689 0.179,-3.853 0.358,-2.42c0.179,1.344 0.179,3.495 0,4.929c-0.179,1.344 -0.358,0.179 -0.358,-2.509Z" style="fill:#b9c8d1;fill-rule:nonzero;"/><path d="M160.846,19.714c0,-2.33 0.269,-4.122 0.717,-3.853c0.358,0.179 0.627,1.971 0.627,3.853c0,1.881 -0.269,3.674 -0.627,3.853c-0.448,0.269 -0.717,-1.524 -0.717,-3.853Z" style="fill:#b9c8d1;fill-rule:nonzero;"/><path d="M166.043,22.85c-0.269,-0.807 -0.269,-1.613 -0.09,-1.882c0.269,-0.269 0.717,0.359 0.986,1.434c0.538,2.061 -0.09,2.419 -0.896,0.448Z" style="fill:#b9c8d1;fill-rule:nonzero;"/><path d="M171.419,19.714c0,-2.689 0.18,-3.853 0.359,-2.42c0.179,1.344 0.179,3.495 0,4.929c-0.179,1.344 -0.359,0.179 -0.359,-2.509Z" style="fill:#b9c8d1;fill-rule:nonzero;"/><path d="M81.364,20.879c1.523,-0.18 4.211,-0.18 5.824,0c1.524,0.179 0.269,0.358 -2.957,0.358c-3.226,0 -4.48,-0.179 -2.867,-0.358Z" style="fill:#b9c8d1;fill-rule:nonzero;"/><path d="M155.021,19.714l-2.24,-0.717l2.509,-0.09c1.344,-0.089 2.42,0.359 2.42,0.807c0,0.537 -0.09,0.896 -0.18,0.806c-0.179,-0.089 -1.254,-0.448 -2.509,-0.806Z" style="fill:#b9c8d1;fill-rule:nonzero;"/></g><g id="layer103"><path d="M7.348,45.073c4.391,-0.18 11.38,-0.18 15.681,0c4.391,0.089 0.807,0.268 -7.796,0.268c-8.602,0 -12.186,-0.179 -7.885,-0.268Z" style="fill:#92abb8;fill-rule:nonzero;"/><path d="M65.772,30.467c0,-8.603 0.179,-12.187 0.269,-7.796c0.179,4.301 0.179,11.29 0,15.681c-0.09,4.301 -0.269,0.717 -0.269,-7.885Z" style="fill:#92abb8;fill-rule:nonzero;"/><path d="M110.217,44.983c2.868,-0.538 3.226,-0.986 3.674,-4.212l0.628,-3.584l-0.18,4.033l-0.089,4.032l-3.585,0.179l-3.584,0.09l3.136,-0.538Z" style="fill:#92abb8;fill-rule:nonzero;"/><path d="M118.999,45.073c1.075,-0.18 2.688,-0.18 3.584,0c0.807,0.268 -0.089,0.448 -2.061,0.358c-1.971,0 -2.688,-0.179 -1.523,-0.358Z" style="fill:#92abb8;fill-rule:nonzero;"/><path d="M139.43,44.356c-0.269,-0.807 -0.448,-2.599 -0.448,-3.853c0.089,-1.792 0.268,-1.524 0.806,1.165c0.717,3.853 0.627,5.107 -0.358,2.688Z" style="fill:#92abb8;fill-rule:nonzero;"/><path d="M148.749,40.771c0,-2.419 0.269,-4.032 0.627,-3.673c0.627,0.627 0.448,6.899 -0.269,7.616c-0.179,0.179 -0.358,-1.523 -0.358,-3.943Z" style="fill:#92abb8;fill-rule:nonzero;"/><path d="M119.895,40.592c0.538,-0.179 1.613,-0.179 2.24,0c0.538,0.269 0.09,0.448 -1.165,0.448c-1.254,0 -1.702,-0.179 -1.075,-0.448Z" style="fill:#92abb8;fill-rule:nonzero;"/><path d="M13.262,39.696c1.075,-0.179 2.867,-0.179 4.032,0c1.076,0.179 0.179,0.359 -2.061,0.359c-2.24,0 -3.136,-0.18 -1.971,-0.359Z" style="fill:#92abb8;fill-rule:nonzero;"/><path d="M46.954,35.485c-0.268,-0.628 -0.268,-3.405 -0.089,-6.004l0.269,-4.839l0.358,11.111l3.405,0.359l3.316,0.358l-3.405,0.09c-2.151,0.09 -3.585,-0.269 -3.854,-1.075Z" style="fill:#92abb8;fill-rule:nonzero;"/><path d="M127.512,30.467c0,-2.689 0.179,-3.854 0.358,-2.42c0.179,1.344 0.179,3.495 0,4.929c-0.179,1.344 -0.358,0.179 -0.358,-2.509Z" style="fill:#92abb8;fill-rule:nonzero;"/><path d="M146.061,30.467c0,-2.599 0.268,-4.481 0.627,-4.122c0.627,0.627 0.448,7.796 -0.269,8.512c-0.179,0.18 -0.358,-1.792 -0.358,-4.39Z" style="fill:#92abb8;fill-rule:nonzero;"/><path d="M161.831,34.23c-0.268,-0.448 0.717,-0.538 2.241,-0.358c1.433,0.179 2.598,0.537 2.598,0.717c0,0.716 -4.391,0.358 -4.839,-0.359Z" style="fill:#92abb8;fill-rule:nonzero;"/><path d="M180.291,31.183c-0.18,-3.136 -0.538,-4.301 -1.703,-4.57c-1.523,-0.358 -1.523,-0.448 0,-0.537c1.971,-0.09 2.599,1.523 2.151,5.824c-0.269,3.405 -0.359,3.316 -0.448,-0.717Z" style="fill:#92abb8;fill-rule:nonzero;"/><path d="M186.653,30.467c0,-2.689 0.179,-3.854 0.358,-2.42c0.179,1.344 0.179,3.495 0,4.929c-0.179,1.344 -0.358,0.179 -0.358,-2.509Z" style="fill:#92abb8;fill-rule:nonzero;"/><path d="M200.99,31.363c0,-2.241 0.179,-3.137 0.358,-1.972c0.18,1.076 0.18,2.868 0,4.033c-0.179,1.075 -0.358,0.179 -0.358,-2.061Z" style="fill:#92abb8;fill-rule:nonzero;"/><path d="M114.071,30.467c0,-2.241 0.179,-3.137 0.358,-1.972c0.179,1.076 0.179,2.868 0,4.033c-0.179,1.075 -0.358,0.179 -0.358,-2.061Z" style="fill:#92abb8;fill-rule:nonzero;"/><path d="M196.689,30.019c0,-2.151 0.269,-3.495 0.627,-2.868c0.896,1.434 0.896,5.735 0.09,6.273c-0.448,0.268 -0.717,-1.344 -0.717,-3.405Z" style="fill:#92abb8;fill-rule:nonzero;"/><path d="M131.902,31.721c-0.627,-0.717 -0.716,-1.254 -0.268,-1.254c0.896,0 2.24,1.702 1.792,2.24c-0.179,0.089 -0.896,-0.269 -1.524,-0.986Z" style="fill:#92abb8;fill-rule:nonzero;"/><path d="M152.602,29.571c0,-2.241 0.179,-3.137 0.358,-1.972c0.18,1.075 0.18,2.868 0,4.033c-0.179,1.075 -0.358,0.179 -0.358,-2.061Z" style="fill:#92abb8;fill-rule:nonzero;"/><path d="M172.943,32.259c-2.24,-0.717 -2.24,-0.717 -0.179,-0.807c1.433,-0.089 1.881,-0.448 1.433,-1.165c-0.358,-0.627 -0.269,-0.806 0.09,-0.448c0.627,0.538 1.613,3.585 1.075,3.226c-0.089,-0.089 -1.165,-0.448 -2.419,-0.806Z" style="fill:#92abb8;fill-rule:nonzero;"/><path d="M191.044,30.467c0,-1.703 0.179,-2.42 0.448,-1.524c0.179,0.807 0.179,2.24 0,3.137c-0.269,0.806 -0.448,0.089 -0.448,-1.613Z" style="fill:#92abb8;fill-rule:nonzero;"/><path d="M138.713,31.632c0.537,-0.18 1.613,-0.18 2.24,0c0.538,0.268 0.089,0.448 -1.165,0.448c-1.255,0 -1.703,-0.18 -1.075,-0.448Z" style="fill:#92abb8;fill-rule:nonzero;"/><path d="M138.892,27.42c0.627,-0.627 1.165,-0.627 1.792,0c0.538,0.538 0.269,0.896 -0.896,0.896c-1.165,0 -1.434,-0.358 -0.896,-0.896Z" style="fill:#92abb8;fill-rule:nonzero;"/><path d="M19.534,27.151c0.538,-0.179 1.613,-0.179 2.241,0c0.537,0.269 0.089,0.448 -1.165,0.448c-1.255,0 -1.703,-0.179 -1.076,-0.448Z" style="fill:#92abb8;fill-rule:nonzero;"/><path d="M163.086,26.882l-3.136,-0.627l2.867,-0.179c1.523,0 3.136,0.358 3.405,0.806c0.269,0.538 0.448,0.807 0.269,0.807c-0.179,-0.09 -1.702,-0.448 -3.405,-0.807Z" style="fill:#92abb8;fill-rule:nonzero;"/><path d="M110.038,26.255c0.538,-0.179 1.613,-0.179 2.24,0c0.538,0.269 0.09,0.448 -1.164,0.448c-1.255,0 -1.703,-0.179 -1.076,-0.448Z" style="fill:#92abb8;fill-rule:nonzero;"/><path d="M118.999,26.255c0.538,-0.179 1.613,-0.179 2.24,0c0.538,0.269 0.09,0.448 -1.165,0.448c-1.254,0 -1.702,-0.179 -1.075,-0.448Z" style="fill:#92abb8;fill-rule:nonzero;"/><path d="M13.71,24.463c0.806,-0.179 2.24,-0.179 3.136,0c0.807,0.269 0.09,0.448 -1.613,0.448c-1.702,0 -2.419,-0.179 -1.523,-0.448Z" style="fill:#92abb8;fill-rule:nonzero;"/><path d="M84.052,24.463c1.075,-0.179 2.867,-0.179 4.032,0c1.076,0.179 0.18,0.358 -2.061,0.358c-2.24,0 -3.136,-0.179 -1.971,-0.358Z" style="fill:#92abb8;fill-rule:nonzero;"/><path d="M119.447,20.162c0,-2.42 0.179,-3.405 0.358,-1.972c0.18,1.344 0.18,3.316 0,4.481c-0.179,1.075 -0.358,0 -0.358,-2.509Z" style="fill:#92abb8;fill-rule:nonzero;"/><path d="M125.63,22.402c0,-1.255 0.179,-1.703 0.448,-1.075c0.179,0.537 0.179,1.613 0,2.24c-0.269,0.537 -0.448,0.089 -0.448,-1.165Z" style="fill:#92abb8;fill-rule:nonzero;"/><path d="M146.329,20.162c0,-2.42 0.18,-3.405 0.359,-1.972c0.179,1.344 0.179,3.316 0,4.481c-0.179,1.075 -0.359,0 -0.359,-2.509Z" style="fill:#92abb8;fill-rule:nonzero;"/><path d="M173.839,20.072c0,-1.434 0.448,-3.226 0.896,-3.943c0.538,-0.896 0.627,-0.179 0.269,2.241c-0.627,4.39 -1.165,5.197 -1.165,1.702Z" style="fill:#92abb8;fill-rule:nonzero;"/><path d="M125.63,17.922c0,-1.255 0.179,-1.703 0.448,-1.076c0.179,0.538 0.179,1.613 0,2.24c-0.269,0.538 -0.448,0.09 -0.448,-1.164Z" style="fill:#92abb8;fill-rule:nonzero;"/><path d="M137.369,16.398c0,-0.806 0.358,-0.896 1.254,-0.179c0.627,0.538 1.165,1.075 1.165,1.254c0,0.09 -0.538,0.18 -1.165,0.18c-0.717,0 -1.254,-0.538 -1.254,-1.255Z" style="fill:#92abb8;fill-rule:nonzero;"/></g><g id="layer104"><path d="M35.395,45.431c-0.269,-0.627 -0.358,-7.796 -0.269,-15.86l0.269,-14.786l30.467,0l0,31.363l-15.054,0.269c-11.739,0.179 -15.144,0 -15.413,-0.986Zm21.147,-6.9c1.434,-0.806 1.703,-1.971 1.703,-8.064c0,-6.094 -0.269,-7.259 -1.703,-8.065c-2.24,-1.165 -8.243,-1.165 -11.201,0c-2.24,0.806 -2.329,1.165 -2.329,7.975c0,5.914 0.269,7.348 1.613,8.065c1.971,1.254 9.677,1.254 11.917,0.089Z" style="fill:#61869a;fill-rule:nonzero;"/><path d="M46.954,35.574c-0.268,-0.717 -0.358,-3.494 -0.179,-6.093l0.269,-4.839l8.065,0l0,11.649l-3.853,0.269c-2.599,0.179 -3.943,-0.09 -4.302,-0.986Z" style="fill:#61869a;fill-rule:nonzero;"/><path d="M70.342,45.431c-0.269,-0.627 -0.358,-7.796 -0.269,-15.86l0.269,-14.786l31.363,0l0,31.363l-15.502,0.269c-12.097,0.179 -15.592,0 -15.861,-0.986Zm22.671,-14.875c0.179,-5.466 -0.09,-7.796 -0.896,-8.244c-0.628,-0.448 -3.853,-0.806 -7.169,-0.806l-6.093,0l0,17.115l6.989,-0.269l6.9,-0.269l0.269,-7.527Z" style="fill:#61869a;fill-rule:nonzero;"/><path d="M81.901,35.574c-0.268,-0.717 -0.358,-3.494 -0.179,-6.093l0.269,-4.839l8.065,0l0,11.649l-3.853,0.269c-2.599,0.179 -3.943,-0.09 -4.302,-0.986Z" style="fill:#61869a;fill-rule:nonzero;"/><path d="M126.974,46.058c-0.986,-0.985 0.269,-2.15 2.151,-2.15c1.075,0 1.702,-0.448 1.523,-0.986c-0.179,-0.538 -0.538,-0.806 -0.717,-0.717c-1.344,0.717 -4.211,-2.061 -4.032,-3.853c0.089,-1.165 0.537,-1.882 0.985,-1.613c0.449,0.269 0.717,0.896 0.538,1.434c-0.179,0.986 1.882,2.33 3.764,2.509c0.448,0.089 1.254,0.806 1.792,1.702c0.806,1.345 0.627,1.882 -0.717,2.957c-1.882,1.345 -4.301,1.613 -5.287,0.717Z" style="fill:#61869a;fill-rule:nonzero;"/><path d="M140.415,46.058c-0.896,-0.985 0.269,-2.15 1.972,-2.15c0.985,0 1.881,-0.807 2.15,-1.882c0.269,-1.075 0.896,-1.613 1.434,-1.255c1.344,0.717 1.254,3.406 -0.09,4.75c-1.165,1.165 -4.48,1.433 -5.466,0.537Z" style="fill:#61869a;fill-rule:nonzero;"/><path d="M0,30.019l0,-15.682l15.502,0.179l15.413,0.269l0,30.467l-15.413,0.269l-15.502,0.179l0,-15.681Zm20.072,8.512c1.882,-0.717 2.33,-1.433 2.33,-3.942c0,-3.495 -1.075,-4.391 -6.362,-5.377c-3.495,-0.627 -5.825,-2.509 -4.839,-4.122c0.896,-1.434 7.617,-1.075 8.154,0.448c0.807,1.972 3.047,1.613 3.047,-0.448c0,-2.24 -2.599,-3.584 -7.169,-3.584c-5.107,0 -7.168,1.254 -7.168,4.391c0,3.225 1.613,4.57 6.183,5.197c4.032,0.538 5.914,2.15 5.107,4.301c-0.717,1.882 -7.527,1.882 -8.244,0c-0.806,-1.971 -3.046,-1.613 -3.046,0.448c0,3.136 6.989,4.66 12.007,2.688Z" style="fill:#61869a;fill-rule:nonzero;"/><path d="M107.171,45.073c-0.896,-0.986 -0.627,-7.886 0.448,-8.961c0.717,-0.717 0.717,-1.165 0,-1.523c-1.434,-0.986 -1.165,-7.348 0.358,-8.603c0.717,-0.627 1.344,-0.896 1.434,-0.537c0.09,1.075 0,9.498 -0.09,10.215c-0.089,0.358 -0.089,2.509 0,4.749c0.09,3.943 -0.806,6.004 -2.15,4.66Z" style="fill:#61869a;fill-rule:nonzero;"/><path d="M117.028,44.714c-0.896,-2.33 -0.09,-19.176 0.806,-18.728c0.538,0.269 0.986,2.868 1.075,5.825c0.09,2.957 0.269,6.9 0.359,8.871c0.089,3.584 -1.434,6.362 -2.24,4.032Z" style="fill:#61869a;fill-rule:nonzero;"/><path d="M134.86,44.625c-0.807,-2.151 -0.18,-8.334 0.896,-8.334c1.254,0 1.702,7.617 0.537,8.782c-0.627,0.627 -1.075,0.448 -1.433,-0.448Z" style="fill:#61869a;fill-rule:nonzero;"/><path d="M153.946,44.087c-3.136,-3.674 -5.197,-7.258 -4.391,-7.706c0.448,-0.269 2.24,1.433 4.033,3.942c1.702,2.42 2.867,4.66 2.419,4.839c-0.448,0.269 -1.344,-0.179 -2.061,-1.075Z" style="fill:#61869a;fill-rule:nonzero;"/><path d="M144.806,38.621c-0.358,-0.448 -0.179,-1.075 0.269,-1.344c0.448,-0.359 1.075,-0.179 1.344,0.269c0.358,0.448 0.179,1.075 -0.269,1.344c-0.448,0.358 -1.075,0.179 -1.344,-0.269Z" style="fill:#61869a;fill-rule:nonzero;"/><path d="M112.816,38.262c-0.09,-0.358 -0.179,-0.896 -0.269,-1.254c-0.089,-0.448 -0.448,-1.165 -0.806,-1.792c-0.717,-1.165 0.717,-2.42 1.882,-1.703c0.896,0.538 0.806,3.764 -0.09,4.66c-0.359,0.358 -0.717,0.358 -0.717,0.089Z" style="fill:#61869a;fill-rule:nonzero;"/><path d="M130.469,37.904c-0.269,-0.269 -0.09,-1.075 0.448,-1.792c0.537,-0.627 0.717,-1.165 0.358,-1.165c-0.358,0 -0.179,-0.538 0.359,-1.255c0.537,-0.716 0.896,-1.612 0.806,-2.15c-0.179,-0.448 0.09,-0.807 0.627,-0.807c1.255,0.269 1.165,3.226 -0.179,4.302c-0.627,0.537 -0.986,1.344 -0.717,1.702c0.628,0.986 -0.896,1.972 -1.702,1.165Z" style="fill:#61869a;fill-rule:nonzero;"/><path d="M139.43,37.725c-0.359,-0.448 -0.18,-1.075 0.268,-1.344c0.448,-0.359 1.076,-0.179 1.344,0.269c0.359,0.448 0.18,1.075 -0.268,1.344c-0.448,0.358 -1.076,0.179 -1.344,-0.269Z" style="fill:#61869a;fill-rule:nonzero;"/><path d="M127.781,35.037c-0.359,-0.448 -0.18,-1.076 0.268,-1.345c0.448,-0.358 1.076,-0.179 1.344,0.269c0.359,0.448 0.18,1.076 -0.268,1.344c-0.448,0.359 -1.076,0.18 -1.344,-0.268Z" style="fill:#61869a;fill-rule:nonzero;"/><path d="M149.824,31.99c-3.226,-4.66 -3.674,-5.556 -2.419,-5.556c1.613,0 6.899,7.796 6.003,8.692c-0.537,0.538 -1.881,-0.537 -3.584,-3.136Z" style="fill:#61869a;fill-rule:nonzero;"/><path d="M156.365,34.768c-0.806,-2.151 -0.089,-9.23 0.896,-9.23c1.255,0 1.703,8.513 0.538,9.678c-0.627,0.627 -1.075,0.448 -1.434,-0.448Z" style="fill:#61869a;fill-rule:nonzero;"/><path d="M160.039,35.126c-0.627,-1.075 2.061,-4.839 3.137,-4.122c0.537,0.269 0.448,1.076 -0.269,1.882c-0.628,0.806 -1.076,1.703 -0.896,1.971c0.537,0.807 -1.434,1.165 -1.972,0.269Z" style="fill:#61869a;fill-rule:nonzero;"/><path d="M175.183,34.678c-0.358,-0.717 -0.717,-2.061 -0.806,-2.957c-0.449,-2.688 -1.882,-2.33 -3.047,0.717c-0.717,1.971 -1.344,2.599 -1.971,1.971c-0.717,-0.717 -0.359,-2.24 0.896,-5.287c1.702,-3.942 1.971,-4.211 3.225,-2.957c0.717,0.717 1.434,1.882 1.613,2.599c0.09,0.717 0.717,2.24 1.345,3.405c0.806,1.434 0.896,2.33 0.179,3.047c-0.628,0.627 -1.076,0.537 -1.434,-0.538Z" style="fill:#61869a;fill-rule:nonzero;"/><path d="M190.954,34.589c-0.627,-0.717 -0.717,-1.524 -0.269,-1.793c0.538,-0.268 1.344,0.09 1.882,0.717c0.627,0.717 0.717,1.524 0.269,1.792c-0.538,0.269 -1.344,-0.089 -1.882,-0.716Z" style="fill:#61869a;fill-rule:nonzero;"/><path d="M194.897,35.037c-0.628,-1.076 1.075,-2.151 2.24,-1.434c0.986,0.627 0.358,2.24 -0.896,2.24c-0.448,0 -0.986,-0.358 -1.344,-0.806Z" style="fill:#61869a;fill-rule:nonzero;"/><path d="M205.739,34.141c-0.985,-1.076 -1.254,-1.882 -0.627,-2.33c0.538,-0.269 1.075,-0.269 1.165,0.179c0,0.358 0.358,-1.075 0.717,-3.316c0.627,-4.032 0.627,-3.942 0.717,1.613c0.089,3.047 0,5.556 -0.09,5.556c-0.179,0 -1.075,-0.806 -1.882,-1.702Z" style="fill:#61869a;fill-rule:nonzero;"/><path d="M122.404,34.141c-0.358,-0.449 -0.179,-1.076 0.269,-1.345c0.448,-0.358 1.075,-0.179 1.344,0.269c0.358,0.448 0.179,1.076 -0.269,1.344c-0.448,0.359 -1.075,0.18 -1.344,-0.268Z" style="fill:#61869a;fill-rule:nonzero;"/><path d="M135.935,34.409c-0.269,-0.448 0.089,-2.061 0.717,-3.584c1.523,-3.763 4.839,-3.584 6.451,0.358c0.807,1.882 0.807,2.958 0.18,3.316c-0.448,0.358 -1.344,-0.627 -1.972,-2.151c-1.075,-2.867 -2.419,-3.763 -2.419,-1.613c0,1.703 -2.33,4.66 -2.957,3.674Z" style="fill:#61869a;fill-rule:nonzero;"/><path d="M120.522,31.452c-0.537,-0.985 2.599,-2.957 3.495,-2.15c0.627,0.627 -1.075,2.957 -2.24,2.957c-0.359,0 -0.896,-0.359 -1.255,-0.807Z" style="fill:#61869a;fill-rule:nonzero;"/><path d="M201.707,29.033c-2.24,-2.24 -1.792,-4.839 0.448,-2.957c1.882,1.523 3.226,4.211 2.33,4.749c-0.359,0.179 -1.613,-0.538 -2.778,-1.792Z" style="fill:#61869a;fill-rule:nonzero;"/><path d="M163.713,29.929c-0.358,-0.358 -0.179,-1.165 0.359,-1.882c1.702,-1.971 1.702,-5.914 0.089,-7.168c-1.433,-1.076 -1.344,-1.165 0.448,-1.703c2.42,-0.627 1.882,-2.151 -0.717,-2.151c-1.523,0 -1.792,0.538 -1.702,3.406c0.269,4.749 0.179,5.018 -1.344,3.763c-1.613,-1.344 -1.792,-7.258 -0.269,-8.781c1.434,-1.434 5.824,-1.345 6.721,0.089c1.075,1.703 1.164,7.169 0.179,8.423c-0.538,0.538 -0.717,1.434 -0.448,1.972c0.717,1.075 -2.42,4.928 -3.316,4.032Z" style="fill:#61869a;fill-rule:nonzero;"/><path d="M131.723,27.33c-0.627,-0.717 -0.896,-1.344 -0.537,-1.344c1.523,0 -2.509,-4.391 -4.212,-4.659c-2.957,-0.448 -2.33,-2.061 0.986,-2.33c3.584,-0.359 3.853,-1.972 0.269,-1.972c-3.047,0 -4.481,-1.523 -2.241,-2.419c2.42,-0.896 6.004,0.807 6.183,3.136c0.09,1.165 -0.179,2.241 -0.627,2.509c-0.358,0.269 -0.269,1.255 0.179,2.241c0.538,0.896 0.717,1.702 0.359,1.702c-0.359,0 0.089,0.807 0.896,1.703c0.896,0.985 1.165,1.971 0.717,2.24c-0.448,0.269 -1.344,-0.09 -1.972,-0.807Z" style="fill:#61869a;fill-rule:nonzero;"/><path d="M190.506,27.958c-0.269,-0.538 0.09,-1.345 0.717,-1.882c0.717,-0.627 1.523,-0.717 1.792,-0.269c0.269,0.538 -0.09,1.344 -0.717,1.882c-0.717,0.627 -1.523,0.717 -1.792,0.269Z" style="fill:#61869a;fill-rule:nonzero;"/><path d="M112.547,26.972c-0.358,-0.448 -0.179,-1.075 0.269,-1.344c0.448,-0.359 1.075,-0.179 1.344,0.269c0.359,0.448 0.179,1.075 -0.269,1.344c-0.448,0.358 -1.075,0.179 -1.344,-0.269Z" style="fill:#61869a;fill-rule:nonzero;"/><path d="M121.508,26.972c-0.358,-0.448 -0.179,-1.075 0.269,-1.344c0.448,-0.359 1.075,-0.179 1.344,0.269c0.358,0.448 0.179,1.075 -0.269,1.344c-0.448,0.358 -1.075,0.179 -1.344,-0.269Z" style="fill:#61869a;fill-rule:nonzero;"/><path d="M127.781,26.972c-0.359,-0.448 -0.18,-1.075 0.268,-1.344c0.448,-0.359 1.076,-0.179 1.344,0.269c0.359,0.448 0.18,1.075 -0.268,1.344c-0.448,0.358 -1.076,0.179 -1.344,-0.269Z" style="fill:#61869a;fill-rule:nonzero;"/><path d="M138.444,26.972c-0.627,-1.075 1.075,-2.151 2.24,-1.434c0.986,0.627 0.358,2.24 -0.896,2.24c-0.448,0 -0.986,-0.358 -1.344,-0.806Z" style="fill:#61869a;fill-rule:nonzero;"/><path d="M179.663,26.972c-0.627,-1.075 1.076,-2.151 2.241,-1.434c0.985,0.627 0.358,2.24 -0.896,2.24c-0.449,0 -0.986,-0.358 -1.345,-0.806Z" style="fill:#61869a;fill-rule:nonzero;"/><path d="M194.986,26.972c-0.358,-0.448 -0.179,-1.075 0.269,-1.344c0.448,-0.359 1.075,-0.179 1.344,0.269c0.359,0.448 0.179,1.075 -0.269,1.344c-0.448,0.358 -1.075,0.179 -1.344,-0.269Z" style="fill:#61869a;fill-rule:nonzero;"/><path d="M134.053,24.284c-0.538,-0.807 1.703,-6.9 3.226,-8.782c0.538,-0.627 1.254,-0.896 1.792,-0.627c0.448,0.269 0.359,1.075 -0.269,1.792c-0.896,1.075 -0.896,1.255 0.09,1.075c1.434,-0.358 3.943,5.198 2.688,6.004c-0.538,0.358 -1.523,-0.806 -2.15,-2.419l-1.345,-2.957l-1.344,3.405c-1.523,3.494 -1.881,3.853 -2.688,2.509Z" style="fill:#61869a;fill-rule:nonzero;"/><path d="M151.975,24.284c-0.359,-0.448 -0.18,-1.076 0.268,-1.344c0.448,-0.359 1.076,-0.18 1.345,0.268c0.358,0.448 0.179,1.076 -0.269,1.345c-0.448,0.358 -1.076,0.179 -1.344,-0.269Z" style="fill:#61869a;fill-rule:nonzero;"/><path d="M169.807,24.015c-0.807,-2.151 -0.09,-9.23 0.896,-9.23c1.254,0 1.702,8.513 0.537,9.678c-0.627,0.627 -1.075,0.448 -1.433,-0.448Z" style="fill:#61869a;fill-rule:nonzero;"/><path d="M174.377,24.284c-0.359,-0.448 -0.18,-1.076 0.268,-1.344c0.448,-0.359 1.076,-0.18 1.344,0.268c0.359,0.448 0.18,1.076 -0.268,1.345c-0.448,0.358 -1.076,0.179 -1.344,-0.269Z" style="fill:#61869a;fill-rule:nonzero;"/><path d="M178.857,24.373c-0.269,-0.537 0.09,-1.344 0.717,-1.881c0.717,-0.628 1.523,-0.717 1.792,-0.269c0.269,0.537 -0.09,1.344 -0.717,1.881c-0.717,0.628 -1.523,0.717 -1.792,0.269Z" style="fill:#61869a;fill-rule:nonzero;"/><path d="M107.171,23.388c-0.359,-0.448 -0.179,-1.076 0.269,-1.345c0.448,-0.358 1.075,-0.179 1.344,0.269c0.358,0.448 0.179,1.076 -0.269,1.344c-0.448,0.359 -1.075,0.18 -1.344,-0.268Z" style="fill:#61869a;fill-rule:nonzero;"/><path d="M112.816,23.925c-0.09,-0.358 -0.179,-0.896 -0.269,-1.254c-0.089,-0.448 -0.448,-1.165 -0.806,-1.792c-0.359,-0.538 -0.269,-1.255 0.269,-1.613c0.627,-0.359 0.627,-1.076 0,-2.241c-1.165,-2.15 0.268,-3.136 1.792,-1.344c0.896,1.076 0.896,1.613 0.089,2.599c-0.627,0.806 -0.717,1.523 -0.179,1.792c0.448,0.269 0.717,1.165 0.627,1.882c-0.179,1.434 -1.344,2.867 -1.523,1.971Z" style="fill:#61869a;fill-rule:nonzero;"/><path d="M151.885,20.61c-0.358,-0.538 -0.269,-1.434 0.269,-1.972c0.537,-0.537 1.075,-0.537 1.523,0.18c0.359,0.537 0.269,1.433 -0.269,1.971c-0.537,0.538 -1.075,0.538 -1.523,-0.179Z" style="fill:#61869a;fill-rule:nonzero;"/><path d="M107.44,19.176c-0.717,-0.896 -0.896,-1.882 -0.269,-2.778c1.165,-1.792 2.419,-1.165 2.598,1.344c0.09,2.689 -0.806,3.226 -2.329,1.434Z" style="fill:#61869a;fill-rule:nonzero;"/><path d="M179.215,17.922c-0.717,-0.449 -2.061,-0.986 -2.957,-1.255c-0.896,-0.269 -1.344,-0.896 -1.075,-1.434c0.806,-1.344 4.57,-1.075 5.825,0.448c1.433,1.703 0.089,3.226 -1.793,2.241Z" style="fill:#61869a;fill-rule:nonzero;"/><path d="M116.042,16.129c-0.269,-0.448 0,-1.165 0.806,-1.433c1.882,-0.717 6.363,-0.09 6.363,0.985c0,1.255 -6.452,1.703 -7.169,0.448Z" style="fill:#61869a;fill-rule:nonzero;"/><path d="M142.924,16.129c-0.269,-0.448 0,-1.165 0.807,-1.433c1.881,-0.717 6.362,-0.09 6.362,0.985c0,1.255 -6.452,1.703 -7.169,0.448Z" style="fill:#61869a;fill-rule:nonzero;"/><path d="M151.885,16.129c-0.269,-0.448 0,-1.165 0.806,-1.433c1.882,-0.717 5.467,-0.09 5.467,0.985c0,1.255 -5.556,1.703 -6.273,0.448Z" style="fill:#61869a;fill-rule:nonzero;"/></g><g id="layer105"><path d="M0,51.972l0,-6.272l31.363,0l0,-15.233l0,-15.234l-15.682,0l-15.681,0l0,-7.616l0,-7.617l207.89,0l-0.09,12.366c0,6.72 -0.358,14.247 -0.627,16.667l-0.627,4.391l-2.061,-3.764c-1.165,-1.971 -2.42,-3.674 -2.957,-3.674c-0.448,0 -0.717,2.151 -0.717,4.749c0.179,4.57 0.179,4.57 0.717,1.076l0.537,-3.585l2.061,3.406c1.165,1.792 2.509,3.315 2.957,3.315c0.448,0 0.807,5.197 0.807,11.649l0,11.649l-103.945,0l-103.945,0l0,-6.273Zm66.31,-21.505l0,-15.234l-15.682,0l-15.681,0l0,30.467l31.363,0l0,-15.233Zm35.843,0l0,-15.234l-15.682,0l-15.681,0l0,30.467l31.363,0l0,-15.233Zm12.366,10.842c0.358,-4.391 -0.538,-5.466 -4.481,-5.466c-2.419,0 -2.509,0.179 -2.509,5.018l0,4.929l3.405,-0.269c3.226,-0.269 3.316,-0.359 3.585,-4.212Zm6.631,3.764c-3.585,-0.448 -3.674,-2.957 -0.18,-3.943l2.241,-0.627l-2.42,-0.09c-3.584,-0.09 -3.405,-2.778 0.179,-2.778c1.524,0 2.689,-0.358 2.689,-0.896c0,-0.448 -1.434,-0.896 -3.137,-0.896l-3.136,0l0,9.857l3.405,-0.179l3.316,-0.09l-2.957,-0.358Zm11.469,-1.524c0,-1.613 -0.717,-2.419 -2.688,-3.136c-1.434,-0.448 -2.688,-1.344 -2.688,-1.792c0,-1.344 2.957,-1.255 4.301,0.09c0.807,0.806 1.075,0.716 1.075,-0.449c0,-2.15 -4.211,-3.046 -6.003,-1.254c-1.972,1.971 -0.896,3.943 2.419,4.66c1.523,0.358 2.599,1.075 2.419,1.613c-0.448,1.523 -3.405,1.881 -4.301,0.537c-0.358,-0.627 -0.985,-0.896 -1.254,-0.627c-1.255,1.254 0.627,2.509 3.674,2.509c2.598,0 3.046,-0.269 3.046,-2.151Zm4.481,-2.778c0,-2.15 -0.359,-4.211 -0.896,-4.48c-0.538,-0.358 -0.896,1.344 -0.896,4.48c0,3.137 0.358,4.839 0.896,4.481c0.537,-0.269 0.896,-2.33 0.896,-4.481Zm9.409,3.137c0.268,-0.986 0.268,-2.151 0,-2.688c-0.717,-1.165 -4.033,-1.165 -4.033,0c0,0.537 0.627,0.896 1.344,0.896c0.717,0 1.344,0.627 1.344,1.344c0,0.806 -0.806,1.344 -2.24,1.344c-1.971,0 -2.24,-0.359 -2.24,-3.584c0,-3.226 0.269,-3.585 2.151,-3.585c1.165,0 2.419,0.538 2.598,1.165c0.269,0.627 0.538,0.538 0.538,-0.448c0.09,-1.792 -2.778,-2.867 -5.287,-2.061c-1.434,0.448 -1.792,1.344 -1.792,4.391c0,4.57 0.358,5.018 4.122,5.018c2.15,0 3.047,-0.448 3.495,-1.792Zm4.032,-1.524l0,-3.405l2.24,3.405c1.255,1.793 2.688,3.316 3.136,3.316c0.538,0 0.896,-2.24 0.896,-5.018c0,-3.047 -0.358,-4.749 -0.896,-4.391c-0.448,0.269 -0.896,2.061 -0.896,3.853l0,3.316l-2.33,-3.764c-1.254,-2.15 -2.598,-3.853 -3.136,-3.853c-0.448,0 -0.806,2.24 -0.806,4.928c0,2.689 0.448,4.929 0.896,4.929c0.537,0 0.896,-1.523 0.896,-3.316Zm-36.022,-12.097l0.268,-4.301l-3.584,0c-3.136,0 -3.674,0.269 -4.211,2.24c-0.269,1.255 -0.269,3.316 0,4.57c0.537,1.972 0.985,2.241 3.942,1.972c3.316,-0.269 3.316,-0.359 3.585,-4.481Zm5.107,1.076c0.717,0 1.703,0.806 2.24,1.792c0.538,0.986 1.345,1.792 1.882,1.792c0.538,0 0.627,-0.538 0.09,-1.523c-0.538,-0.986 -0.538,-2.061 0.089,-3.047c1.524,-2.509 0.09,-4.391 -3.405,-4.391l-3.136,0l0.09,4.749c0.089,2.509 0.358,3.764 0.537,2.689c0.18,-1.165 0.986,-2.061 1.613,-2.061Zm14.606,1.165c0.269,-1.703 -0.089,-2.061 -2.24,-1.972c-1.523,0.09 -1.882,0.269 -0.896,0.538c2.419,0.627 1.882,2.957 -0.717,2.957c-1.971,0 -2.24,-0.359 -2.24,-3.584c0,-3.226 0.269,-3.585 2.151,-3.585c1.164,0 2.329,0.538 2.598,1.165c0.179,0.538 0.717,0.807 1.075,0.359c1.345,-1.255 -1.075,-2.599 -4.121,-2.241c-2.689,0.269 -3.047,0.628 -3.316,3.226c-0.448,4.75 0.269,5.735 4.032,5.377c2.778,-0.179 3.495,-0.627 3.674,-2.24Zm3.226,1.075c0.269,-0.717 1.344,-1.344 2.33,-1.344c0.986,0 2.061,0.627 2.33,1.344c0.358,0.717 0.896,1.344 1.344,1.344c0.448,0 0,-1.882 -0.896,-4.212c-0.896,-2.419 -2.151,-4.301 -2.778,-4.301c-0.627,0 -1.882,1.882 -2.778,4.301c-0.896,2.33 -1.344,4.212 -0.896,4.212c0.448,0 0.986,-0.627 1.344,-1.344Zm10.574,-1.523l0.269,-2.958l1.792,2.958c2.598,4.301 4.032,3.673 4.032,-1.613c0,-5.198 -1.523,-6.094 -1.971,-1.076l-0.269,3.316l-1.971,-3.316c-1.076,-1.881 -2.42,-3.405 -2.957,-3.405c-0.448,0 -0.896,1.972 -0.896,4.481c0,4.928 1.523,6.183 1.971,1.613Zm9.409,-4.033c-0.18,-1.434 -0.359,-0.269 -0.359,2.42c0,2.688 0.179,3.853 0.359,2.509c0.179,-1.434 0.179,-3.585 0,-4.929Zm7.616,6.094l-2.957,-0.538l2.778,-3.764l2.868,-3.853l-3.943,0.09c-3.226,0.089 -3.405,0.179 -1.344,0.717l2.419,0.537l-2.24,3.316c-1.255,1.792 -2.24,3.495 -2.24,3.763c0,0.359 1.702,0.448 3.853,0.448c3.584,-0.179 3.674,-0.179 0.806,-0.716Zm5.556,-0.538c0.269,-0.717 1.255,-1.344 2.24,-1.344c0.896,0 1.882,0.627 2.24,1.344c0.269,0.717 0.896,1.344 1.345,1.344c0.448,0 0.089,-1.971 -0.986,-4.48c-0.986,-2.42 -2.24,-4.481 -2.688,-4.481c-0.628,0 -4.302,7.258 -4.302,8.603c0,0.985 1.703,0.179 2.151,-0.986Zm11.291,-2.599c0,-3.046 0.358,-4.122 1.613,-4.391c0.806,-0.268 -0.269,-0.448 -2.509,-0.448c-2.241,0 -3.316,0.18 -2.42,0.448c1.165,0.269 1.523,1.345 1.523,4.391c0,2.151 0.448,3.943 0.897,3.943c0.537,0 0.896,-1.792 0.896,-3.943Zm6.272,-0.537c0,-2.42 -0.358,-4.481 -0.896,-4.481c-0.448,0 -0.896,2.061 -0.896,4.481c0,2.509 0.448,4.48 0.896,4.48c0.538,0 0.896,-1.971 0.896,-4.48Zm9.409,0l0,-4.033l-3.584,0c-3.405,0 -3.585,0.179 -3.854,2.957c-0.448,4.75 0.269,5.735 4.033,5.377c3.405,-0.269 3.405,-0.269 3.405,-4.301Zm-84.231,-6.631c2.24,-1.613 1.165,-4.033 -2.24,-4.66c-1.434,-0.358 -2.689,-1.165 -2.689,-1.792c0,-1.613 4.122,-1.703 4.749,-0.09c0.269,0.628 0.538,0.448 0.538,-0.448c0.09,-2.061 -5.735,-2.33 -6.541,-0.269c-0.627,1.613 1.702,4.033 4.032,4.033c0.896,0 1.703,0.627 1.703,1.344c0,1.613 -4.122,1.882 -4.75,0.269c-0.179,-0.628 -0.716,-0.807 -1.164,-0.448c-0.807,0.806 1.971,3.315 3.673,3.315c0.538,0 1.793,-0.537 2.689,-1.254Zm52.779,0.717c0.806,-0.269 1.433,-1.524 1.433,-2.689c0,-1.613 -0.448,-2.15 -1.971,-2.061c-1.165,0 -1.523,0.269 -0.896,0.538c1.792,0.717 1.254,2.957 -0.717,2.957c-1.523,0 -1.792,-0.627 -1.792,-3.584c0,-2.957 0.269,-3.585 1.792,-3.585c0.986,0 1.792,0.448 1.792,0.896c0,0.538 0.448,0.897 0.896,0.897c0.538,0 0.896,-0.628 0.896,-1.345c0,-0.985 -0.985,-1.344 -3.584,-1.344l-3.584,0l0,4.391c0,5.018 1.702,6.452 5.735,4.929Zm13.441,0c0.806,-0.269 1.434,-1.255 1.344,-2.061c0,-0.897 -0.179,-0.986 -0.538,-0.269c-0.179,0.537 -1.433,1.075 -2.598,1.075c-1.882,0 -2.151,-0.358 -2.151,-3.584c0,-2.868 0.358,-3.585 1.613,-3.585c0.896,0 2.061,0.448 2.688,1.076c0.807,0.806 1.076,0.717 1.076,-0.538c0,-1.254 -0.628,-1.523 -3.316,-1.254c-3.226,0.268 -3.405,0.448 -3.674,3.673c-0.448,4.929 1.703,6.99 5.556,5.467Zm-59.5,-4.302c0,-3.405 0.269,-4.032 2.061,-4.39c1.076,-0.18 0,-0.359 -2.509,-0.359c-2.419,-0.089 -3.763,0.09 -2.867,0.359c1.165,0.268 1.523,1.344 1.523,4.39c0,2.151 0.448,3.943 0.896,3.943c0.538,0 0.896,-1.792 0.896,-3.943Zm6.273,2.151c0,-2.33 1.523,-2.24 3.763,0.269c1.434,1.613 1.703,1.613 1.255,0.358c-0.269,-0.896 -0.09,-2.419 0.358,-3.315c1.524,-2.868 0.179,-4.481 -3.674,-4.481l-3.494,0l0,4.481c0,2.509 0.448,4.48 0.896,4.48c0.537,0 0.896,-0.806 0.896,-1.792Zm9.498,0.448c0.359,-0.717 1.344,-1.344 2.24,-1.344c0.986,0 1.972,0.627 2.241,1.344c0.358,0.717 0.896,1.344 1.344,1.344c0.985,0 -2.24,-8.333 -3.405,-8.692c-0.538,-0.179 -1.703,1.703 -2.778,4.212c-0.986,2.419 -1.434,4.48 -0.986,4.48c0.448,0 1.075,-0.627 1.344,-1.344Zm11.112,-2.599c0,-3.046 0.358,-4.122 1.613,-4.39c0.806,-0.269 -0.269,-0.448 -2.509,-0.448c-2.241,0 -3.316,0.179 -2.42,0.448c1.165,0.268 1.523,1.344 1.523,4.39c0,2.151 0.448,3.943 0.897,3.943c0.537,0 0.896,-1.792 0.896,-3.943Zm9.229,3.316c-3.584,-0.448 -4.122,-2.957 -0.717,-2.957c1.255,0 2.241,-0.359 2.241,-0.896c0,-0.448 -0.986,-0.896 -2.241,-0.896c-3.405,0 -2.867,-2.509 0.717,-2.957c2.509,-0.269 2.33,-0.359 -0.896,-0.448l-3.853,-0.18l0,8.961l3.853,-0.179c3.226,-0.09 3.405,-0.179 0.896,-0.448Zm15.861,-3.853c0,-2.42 -0.359,-4.481 -0.896,-4.481c-0.448,0 -0.896,2.061 -0.896,4.481c0,2.509 0.448,4.48 0.896,4.48c0.537,0 0.896,-1.971 0.896,-4.48Z" style="fill:#f8f9f9;fill-rule:nonzero;"/><path d="M44.087,38.352c-1.434,-1.434 -1.434,-14.337 0,-15.771c1.075,-1.075 10.215,-1.523 12.724,-0.538c2.061,0.807 2.061,16.04 0,16.847c-2.509,0.985 -11.649,0.537 -12.724,-0.538Zm10.574,-7.975l0,-6.273l-3.764,0.269l-3.853,0.269l-0.269,6.093l-0.269,6.004l8.155,0l0,-6.362Z" style="fill:#f8f9f9;fill-rule:nonzero;"/><path d="M77.959,30.467l0,-8.961l7.168,0c8.513,0 8.961,0.537 8.961,9.319c0,7.796 -0.896,8.602 -9.498,8.602l-6.631,0l0,-8.96Zm12.097,-0.448l0,-5.377l-3.764,-0.269l-3.853,-0.269l0,11.829l3.853,-0.269l3.764,-0.269l0,-5.376Z" style="fill:#f8f9f9;fill-rule:nonzero;"/><path d="M108.425,41.22c0,-3.226 0.269,-3.585 2.24,-3.585c2.061,0 2.241,0.359 2.241,3.585c0,3.225 -0.18,3.584 -2.241,3.584c-1.971,0 -2.24,-0.359 -2.24,-3.584Z" style="fill:#f8f9f9;fill-rule:nonzero;"/><path d="M108.425,30.467c0,-3.226 0.269,-3.585 2.24,-3.585c2.061,0 2.241,0.359 2.241,3.585c0,3.225 -0.18,3.584 -2.241,3.584c-1.971,0 -2.24,-0.359 -2.24,-3.584Z" style="fill:#f8f9f9;fill-rule:nonzero;"/><path d="M118.909,29.929c-1.433,-1.434 -0.537,-3.047 1.703,-3.047c1.702,0 2.24,0.448 1.971,1.524c-0.269,1.702 -2.598,2.598 -3.674,1.523Z" style="fill:#f8f9f9;fill-rule:nonzero;"/><path d="M138.892,30.019c0,-0.717 0.358,-1.345 0.806,-1.345c0.448,0 0.986,0.628 1.344,1.345c0.269,0.806 0,1.344 -0.806,1.344c-0.717,0 -1.344,-0.628 -1.344,-1.344Z" style="fill:#f8f9f9;fill-rule:nonzero;"/><path d="M171.688,30.019c0.359,-0.717 0.896,-1.345 1.344,-1.345c0.448,0 0.807,0.628 0.807,1.345c0,0.716 -0.627,1.344 -1.344,1.344c-0.807,0 -1.076,-0.538 -0.807,-1.344Z" style="fill:#f8f9f9;fill-rule:nonzero;"/><path d="M191.76,30.467c0,-3.226 0.269,-3.585 2.241,-3.585c2.061,0 2.24,0.359 2.24,3.585c0,3.225 -0.179,3.584 -2.24,3.584c-1.972,0 -2.241,-0.359 -2.241,-3.584Z" style="fill:#f8f9f9;fill-rule:nonzero;"/><path d="M126.347,17.922c0,-1.345 0.627,-1.793 2.24,-1.793c1.613,0 2.24,0.448 2.24,1.793c0,1.344 -0.627,1.792 -2.24,1.792c-1.613,0 -2.24,-0.448 -2.24,-1.792Z" style="fill:#f8f9f9;fill-rule:nonzero;"/><path d="M137.1,19.803c0,-1.523 1.613,-1.881 2.15,-0.537c0.269,0.806 0,1.344 -0.806,1.344c-0.717,0 -1.344,-0.359 -1.344,-0.807Z" style="fill:#f8f9f9;fill-rule:nonzero;"/><path d="M9.14,38.352c-1.703,-1.702 -1.344,-4.301 0.717,-4.301c0.986,0 1.792,0.627 1.792,1.344c0,0.986 0.986,1.344 3.584,1.344c3.137,0 3.585,-0.269 3.585,-2.061c0,-1.792 -0.717,-2.24 -5.108,-3.315c-5.108,-1.344 -5.197,-1.434 -5.466,-4.839c-0.179,-2.151 0.179,-3.764 0.896,-4.212c1.344,-0.896 9.767,-1.075 11.828,-0.269c2.151,0.807 1.882,4.839 -0.358,4.839c-0.986,0 -1.792,-0.627 -1.792,-1.344c0,-0.985 -0.986,-1.344 -3.585,-1.344c-3.046,0 -3.584,0.269 -3.584,1.792c0,1.972 0.448,2.24 5.556,3.136c4.032,0.628 6.093,2.51 6.093,5.377c0,3.495 -2.24,4.928 -7.975,4.928c-2.778,0 -5.556,-0.448 -6.183,-1.075Z" style="fill:#f8f9f9;fill-rule:nonzero;"/></g></svg>